<svg width="207" height="347" viewBox="0 0 207 347" fill="none" xmlns="http://www.w3.org/2000/svg">
<path fill-rule="evenodd" clip-rule="evenodd" d="M51.383 0C51.383 0 54.3191 22.0213 33.0319 83.6808C11.7447 145.34 0 161.856 0 161.856C0 161.856 31.3361 189.33 51.75 227.92C67.9081 258.466 93.6621 324.792 101.298 344.726V215.191C80.0249 214.048 63.1277 196.436 63.1277 174.878C63.1277 152.581 81.203 134.505 103.5 134.505C125.797 134.505 143.872 152.581 143.872 174.878C143.872 196.683 126.585 214.451 104.968 215.224V346.667C111.665 329.225 139.658 257.026 155.25 227.92C176.967 187.383 207 161.856 207 161.856C207 161.856 187.915 122.585 173.234 83.6808C158.553 44.7766 154.516 0 154.516 0H51.383Z" fill="#007BFF"/>
</svg>
